<?xml version="1.0" encoding="UTF-8"?>
<svg id="Layer_2" data-name="Layer 2" xmlns="http://www.w3.org/2000/svg" xmlns:xlink="http://www.w3.org/1999/xlink" viewBox="0 0 2612.14 1244.77">
  <defs>
    <style>
      .cls-1 {
        fill: url(#GradientFill_1-2);
      }

      .cls-1, .cls-2, .cls-3, .cls-4, .cls-5, .cls-6, .cls-7 {
        fill-rule: evenodd;
      }

      .cls-2 {
        fill: url(#GradientFill_1);
      }

      .cls-3 {
        fill: #1f2858;
      }

      .cls-4 {
        fill: #9186dd;
      }

      .cls-5 {
        fill: #b3d1f4;
      }

      .cls-6 {
        fill: #442f86;
      }

      .cls-7 {
        fill: #bbd1f5;
      }
    </style>
    <linearGradient id="GradientFill_1" data-name="GradientFill 1" x1="1101.72" y1="719.67" x2="800.79" y2="789.14" gradientUnits="userSpaceOnUse">
      <stop offset="0" stop-color="#60b0e2"/>
      <stop offset="1" stop-color="#916eb0"/>
    </linearGradient>
    <linearGradient id="GradientFill_1-2" data-name="GradientFill 1" x1="1415.7" y1="1006.66" x2="1551.22" y2="653.62" xlink:href="#GradientFill_1"/>
  </defs>
  <g id="Layer_1-2" data-name="Layer 1">
    <g>
      <g>
        <g>
          <path class="cls-5" d="m1021.52,425.77h-19.08c-13.08,0-23.68,10.6-23.68,23.68v38.36c0,13.08-10.6,23.68-23.68,23.68h-116.24c-13.08,0-23.68-10.6-23.68-23.68v-38.36c0-13.08-10.6-23.68-23.68-23.68h-211.96c-13.08,0-23.68-10.6-23.68-23.68v-76.09c0-4.81,1.46-9.5,4.2-13.46L760.96,21.65c4.42-6.4,11.7-10.22,19.48-10.22h116.27c18.9,0,30.18,21.05,19.72,36.79l-139.66,210.02c-10.46,15.74.82,36.79,19.72,36.79,13.08,0,23.68-10.6,23.68-23.68v-29.08c0-13.08,10.6-23.68,23.68-23.68h111.23c13.08,0,23.68,10.6,23.68,23.68v29.08c0,13.08,10.6,23.68,23.68,23.68h19.08c13.08,0,23.68,10.6,23.68,23.68v83.37c0,13.08-10.6,23.68-23.68,23.68Z"/>
          <path class="cls-5" d="m1177.71,491.84c-34.06-20.72-60.72-50.72-80.01-90.01-19.28-39.29-28.93-86.08-28.93-140.37s9.65-101.08,28.93-140.37c19.29-39.29,45.96-69.29,80.01-90.01C1211.75,10.36,1250.93,0,1295.23,0s83.45,10.36,117.51,31.08c34.05,20.72,60.72,50.72,80.01,90.01,19.29,39.29,28.93,86.08,28.93,140.37s-9.64,101.08-28.93,140.37c-19.29,39.29-45.96,69.29-80.01,90.01-34.06,20.72-73.22,31.08-117.51,31.08s-83.48-10.36-117.52-31.08h0Zm174.66-230.38h0c0-84.3-19.05-126.44-57.14-126.44s-57.15,42.15-57.15,126.44,19.04,126.44,57.15,126.44,57.14-42.15,57.14-126.44Z"/>
          <path class="cls-5" d="m2024.48,425.77h-19.08c-13.08,0-23.68,10.6-23.68,23.68v38.36c0,13.08-10.6,23.68-23.68,23.68h-116.23c-13.08,0-23.68-10.6-23.68-23.68v-38.36c0-13.08-10.6-23.68-23.68-23.68h-211.95c-13.08,0-23.68-10.6-23.68-23.68v-76.09c0-4.81,1.46-9.5,4.2-13.46L1763.93,21.65c4.42-6.4,11.7-10.22,19.48-10.22h116.27c18.9,0,30.18,21.05,19.72,36.79l-139.66,210.02c-10.47,15.74.82,36.79,19.72,36.79,13.08,0,23.68-10.6,23.68-23.68v-29.08c0-13.08,10.6-23.68,23.68-23.68h111.23c13.08,0,23.68,10.6,23.68,23.68v29.08c0,13.08,10.6,23.68,23.68,23.68h19.08c13.08,0,23.68,10.6,23.68,23.68v83.37c0,13.08-10.6,23.68-23.68,23.68Z"/>
        </g>
        <g>
          <path class="cls-3" d="m991.07,425.77h-19.08c-13.08,0-23.68,10.6-23.68,23.68v38.36c0,13.08-10.6,23.68-23.68,23.68h-116.24c-13.08,0-23.68-10.6-23.68-23.68v-38.36c0-13.08-10.6-23.68-23.68-23.68h-211.96c-13.08,0-23.68-10.6-23.68-23.68v-76.09c0-4.81,1.46-9.5,4.2-13.46L730.51,21.65c4.42-6.4,11.7-10.22,19.48-10.22h116.27c18.9,0,30.18,21.05,19.72,36.79l-139.66,210.02c-10.47,15.74.82,36.79,19.72,36.79,13.08,0,23.68-10.6,23.68-23.68v-29.08c0-13.08,10.6-23.68,23.68-23.68h111.23c13.08,0,23.68,10.6,23.68,23.68v29.08c0,13.08,10.6,23.68,23.68,23.68h19.08c13.08,0,23.68,10.6,23.68,23.68v83.37c0,13.08-10.6,23.68-23.68,23.68Z"/>
          <path class="cls-3" d="m1147.26,491.84c-34.06-20.72-60.72-50.72-80.01-90.01-19.28-39.29-28.93-86.08-28.93-140.37s9.65-101.08,28.93-140.37c19.29-39.29,45.96-69.29,80.01-90.01,34.04-20.72,73.22-31.08,117.52-31.08s83.45,10.36,117.51,31.08c34.05,20.71,60.72,50.72,80.01,90.01,19.29,39.29,28.93,86.08,28.93,140.37s-9.64,101.08-28.93,140.37c-19.29,39.29-45.96,69.29-80.01,90.01-34.06,20.72-73.22,31.08-117.51,31.08s-83.48-10.36-117.52-31.08h0Zm174.66-230.38h0c0-84.29-19.05-126.44-57.14-126.44s-57.15,42.15-57.15,126.44,19.04,126.44,57.15,126.44,57.14-42.15,57.14-126.44Z"/>
          <path class="cls-3" d="m1994.03,425.77h-19.08c-13.08,0-23.68,10.6-23.68,23.68v38.36c0,13.08-10.6,23.68-23.68,23.68h-116.24c-13.08,0-23.68-10.6-23.68-23.68v-38.36c0-13.08-10.6-23.68-23.68-23.68h-211.95c-13.08,0-23.68-10.6-23.68-23.68v-76.09c0-4.81,1.46-9.5,4.2-13.46L1733.48,21.65c4.42-6.4,11.7-10.22,19.48-10.22h116.27c18.9,0,30.18,21.05,19.72,36.79l-139.66,210.02c-10.47,15.74.82,36.79,19.72,36.79,13.08,0,23.68-10.6,23.68-23.68v-29.08c0-13.08,10.6-23.68,23.68-23.68h111.23c13.08,0,23.68,10.6,23.68,23.68v29.08c0,13.08,10.6,23.68,23.68,23.68h19.08c13.08,0,23.68,10.6,23.68,23.68v83.37c0,13.08-10.6,23.68-23.68,23.68Z"/>
        </g>
      </g>
      <g>
        <path class="cls-3" d="m219.65,759.92c73.25,0,133.84-23.5,183.68-70.92,59.61-56.72,94.11-137.34,127.47-215.3,37.71-88.13,73.33-171.37,138.39-192.19,28.66-9.17,54.73-6.09,79.7,9.45,109.77,68.31,151.37,340.26,151.77,342.99l37.09-5.52c-1.77-11.88-44.72-291.94-169.05-369.31-34.39-21.4-71.72-25.88-110.94-13.32-81.36,26.05-120.26,116.93-161.43,213.15-63.99,149.52-130.14,304.14-360.41,253.61l-111.4-36.04c-9.85-3.19-20.42,2.22-23.61,12.07-3.19,9.85,2.22,20.42,12.08,23.61l113.96,36.79c32.95,7.28,63.81,10.94,92.7,10.94Z"/>
        <path class="cls-2" d="m853.38,945.13l-39.91-193.49c-13.78-66.82,25.13-133.25,90.16-153.9,72.75-23.11,150,19.49,169.27,93.35l48.97,187.67-268.5,66.38Z"/>
        <path class="cls-4" d="m853.46,950.25c4.29,17.81,68.63,17.58,143.72-.51,75.08-18.09,132.47-47.18,128.19-64.99-4.29-17.81-68.63-17.58-143.72.51-75.09,18.09-132.48,47.18-128.19,64.99Z"/>
        <path class="cls-3" d="m1015.59,897.75c-1.08,6.01,9.66,12.97,23.99,15.54,14.33,2.57,26.82-.21,27.9-6.22,1.08-6.01-9.66-12.97-23.99-15.54-14.33-2.57-26.82.21-27.9,6.22Z"/>
        <path class="cls-3" d="m920.97,926.77c-1.08,6.01,9.66,12.97,23.99,15.54,14.33,2.57,26.82-.21,27.9-6.22,1.08-6.01-9.66-12.97-23.99-15.54-14.33-2.57-26.82.21-27.9,6.22Z"/>
        <path class="cls-7" d="m973.62,620.41s57.9,21.05,76.32,81.58c18.42,60.53,34.21,138.16,34.21,138.16l-52.63,1.32-57.9-221.05Z"/>
        <polygon class="cls-6" points="922.64 551.83 894.68 600.67 931.52 592.12 922.64 551.83"/>
        <path class="cls-3" d="m2612.14,500.73l-14.91,33.15c-2.59-1.16-64.16-29.72-120.68-130.33-16.34-29.08-41.4-63.1-67.99-59.96-19.07,2.25-69.65,29.34-127.17,231.78-62.72,220.76-196.87,365-398.72,428.72-130.64,41.24-292.2-46.78-299.01-50.55l17.59-31.81c2.03,1.12,155.01,84.15,270.48,47.7,189.46-59.81,315.53-195.73,374.7-403.99,47.34-166.61,98.98-250.98,157.87-257.94,37.32-4.41,72.28,21.93,103.94,78.26,50.73,90.29,103.37,114.75,103.9,114.99h0Zm-1010.89,420.99s0,0,0,0l-8.78,15.91,8.79-15.91h0Z"/>
        <path class="cls-3" d="m1263.94,789.46l95.75,69.38c8,5.8,9.79,16.99,3.99,24.99-5.8,8-16.99,9.79-24.99,3.99l-95.75-69.38c-8-5.8-9.79-16.99-3.99-24.98,5.8-8,16.98-9.79,24.99-3.99Z"/>
        <path class="cls-3" d="m1337.8,683.18l95.75,69.38c8,5.8,9.79,16.98,3.99,24.99-5.8,8-16.98,9.79-24.99,3.99l-95.75-69.38c-8-5.8-9.79-16.98-3.99-24.99,5.8-8,16.98-9.79,24.98-3.99Z"/>
        <polygon class="cls-6" points="1672.81 959.28 1613.38 968.14 1629.83 935 1686.01 957.14 1672.81 959.28"/>
        <path class="cls-1" d="m1271.23,888.74l165.64,107.68c57.2,37.18,133.24,25.16,176.18-27.86,48.03-59.32,36.52-146.79-25.24-191.65l-156.91-114-159.67,225.84Z"/>
        <path class="cls-7" d="m1326.77,896.63l38.13-51.6,195.64,140.92s-46.89,23.36-100.87-2.88c-53.98-26.24-132.9-86.44-132.9-86.44Z"/>
        <path class="cls-3" d="m744.55,1224.25c21.6,0,32.08-10.8,32.08-23.42,0-27.76-43.96-18.13-43.96-32.08,0-4.77,4-8.66,14.37-8.66,6.7,0,13.93,1.94,20.95,5.94l5.4-13.28c-7.02-4.43-16.74-6.7-26.24-6.7-21.49,0-31.86,10.69-31.86,23.56,0,28.08,43.96,18.36,43.96,32.51,0,4.63-4.21,8.08-14.58,8.08-9.07,0-18.58-3.24-24.95-7.87l-5.94,13.16c6.7,5.18,18.79,8.75,30.78,8.75Z"/>
        <path class="cls-3" d="m815.08,1223.82c18.47,0,31.86-12.42,31.86-29.92s-13.39-29.92-31.86-29.92-31.97,12.42-31.97,29.92,13.5,29.92,31.97,29.92h0Zm0-13.83c-8.43,0-14.9-6.05-14.9-16.09s6.48-16.09,14.9-16.09,14.8,6.05,14.8,16.09-6.37,16.09-14.8,16.09Z"/>
        <path class="cls-3" d="m874.27,1172.51v-7.67h-16.09v58.11h16.85v-27.43c0-11.12,6.16-16.2,15.45-16.2,1.3,0,2.38.11,3.78.22v-15.55c-8.96,0-15.88,2.92-19.98,8.53Z"/>
        <path class="cls-3" d="m920.39,1172.51v-7.67h-16.09v58.11h16.85v-27.43c0-11.12,6.16-16.2,15.45-16.2,1.3,0,2.38.11,3.78.22v-15.55c-8.96,0-15.88,2.92-19.98,8.53Z"/>
        <path class="cls-3" d="m993.94,1164.85l-16.42,39.42-16.31-39.42h-17.39l25.17,58.54-.22.54c-2.27,5.18-4.86,7.24-9.5,7.24-3.35,0-6.91-1.4-9.5-3.67l-6.16,11.99c3.78,3.35,10.26,5.29,16.2,5.29,10.48,0,18.47-4.21,24.09-18.25l26.24-61.67h-16.2Z"/>
        <path class="cls-3" d="m1020.08,1202.86c-5.94,0-10.48,4.1-10.48,10.37,0,4.43,2.27,7.78,5.83,9.18l-4.75,17.17h10.69l6.16-15.55c2.48-5.94,2.92-7.99,2.92-10.8,0-6.16-4.32-10.37-10.37-10.37Z"/>
        <path class="cls-3" d="m1106.37,1147.35h-32.73v75.6h17.5v-20.85h15.23c20.2,0,32.83-10.48,32.83-27.32s-12.64-27.43-32.83-27.43h0Zm-.97,40.5h-14.26v-26.25h14.26c10.69,0,16.09,4.86,16.09,13.18s-5.4,13.07-16.09,13.07Z"/>
        <path class="cls-3" d="m1173.34,1163.98c-9.29,0-18.68,2.48-25.06,7.02l6.05,11.77c4.21-3.35,10.58-5.4,16.74-5.4,9.07,0,13.39,4.21,13.39,11.45h-13.39c-17.71,0-24.95,7.13-24.95,17.39s8.1,17.61,21.71,17.61c8.53,0,14.58-2.81,17.71-8.1v7.24h15.77v-33.16c0-17.6-10.26-25.81-27.97-25.81h0Zm-1.3,48.49c-5.94,0-9.5-2.81-9.5-7.02,0-3.89,2.48-6.8,10.37-6.8h11.56v5.94c-1.94,5.29-6.8,7.89-12.42,7.89Z"/>
        <path class="cls-3" d="m1261.15,1164.85v7.45c-4.43-5.62-11.12-8.32-19.22-8.32-16.09,0-29.05,11.12-29.05,28.08s12.96,28.08,29.05,28.08c7.56,0,13.93-2.38,18.36-7.24v2.48c0,10.48-5.19,15.88-17.07,15.88-7.45,0-15.55-2.59-20.52-6.59l-6.7,12.1c6.8,5.29,17.5,7.99,28.51,7.99,20.95,0,32.62-9.94,32.62-31.54v-48.39h-15.98Zm-15.88,41.47c-8.86,0-15.34-5.72-15.34-14.26s6.48-14.26,15.34-14.26,15.23,5.73,15.23,14.26-6.37,14.26-15.23,14.26Z"/>
        <path class="cls-3" d="m1349.71,1194.12c0-18.68-13.18-30.13-30.24-30.13s-31,12.53-31,29.92,13.07,29.92,33.16,29.92c10.48,0,18.58-3.24,23.98-9.4l-8.96-9.72c-4,3.78-8.42,5.62-14.58,5.62-8.86,0-15.01-4.43-16.63-11.66h43.96c.11-1.4.32-3.24.32-4.54h0Zm-30.13-17.39c7.56,0,13.07,4.75,14.26,12.1h-28.62c1.19-7.45,6.7-12.1,14.36-12.1Z"/>
        <polygon class="cls-3" points="1444.76 1147.35 1444.76 1193.25 1407.17 1147.35 1392.7 1147.35 1392.7 1222.95 1409.98 1222.95 1409.98 1177.05 1447.67 1222.95 1462.04 1222.95 1462.04 1147.35 1444.76 1147.35"/>
        <path class="cls-3" d="m1506.43,1223.82c18.47,0,31.86-12.42,31.86-29.92s-13.39-29.92-31.86-29.92-31.97,12.42-31.97,29.92,13.5,29.92,31.97,29.92h0Zm0-13.83c-8.42,0-14.9-6.05-14.9-16.09s6.48-16.09,14.9-16.09,14.8,6.05,14.8,16.09-6.37,16.09-14.8,16.09Z"/>
        <path class="cls-3" d="m1582.46,1208.26c-1.84,1.4-4.32,2.16-6.8,2.16-4.54,0-7.24-2.7-7.24-7.67v-23.65h14.47v-12.96h-14.47v-14.15h-16.85v14.15h-8.96v12.96h8.96v23.87c0,13.82,7.99,20.85,21.71,20.85,5.18,0,10.26-1.19,13.72-3.67l-4.54-11.88Z"/>
        <polygon class="cls-3" points="1685.39 1161.39 1685.39 1147.35 1628.26 1147.35 1628.26 1222.95 1645.76 1222.95 1645.76 1195.41 1680.75 1195.41 1680.75 1181.37 1645.76 1181.37 1645.76 1161.39 1685.39 1161.39"/>
        <path class="cls-3" d="m1722.22,1223.82c18.47,0,31.86-12.42,31.86-29.92s-13.39-29.92-31.86-29.92-31.97,12.42-31.97,29.92,13.5,29.92,31.97,29.92h0Zm0-13.83c-8.42,0-14.9-6.05-14.9-16.09s6.48-16.09,14.9-16.09,14.8,6.05,14.8,16.09-6.37,16.09-14.8,16.09Z"/>
        <path class="cls-3" d="m1807.01,1164.85v28.73c0,10.69-5.62,15.66-13.39,15.66s-11.77-4.32-11.77-14.04v-30.35h-16.85v32.83c0,17.93,10.26,26.14,24.84,26.14,7.13,0,13.61-2.7,18.04-7.78v6.91h15.98v-58.11h-16.85Z"/>
        <path class="cls-3" d="m1874.84,1163.98c-7.89,0-14.69,2.7-19.23,7.67v-6.8h-16.09v58.11h16.85v-28.73c0-10.69,5.83-15.66,13.93-15.66,7.45,0,11.77,4.32,11.77,13.72v30.67h16.85v-33.27c0-17.71-10.37-25.71-24.08-25.71Z"/>
        <path class="cls-3" d="m1957.14,1142.81v28.19c-4.21-4.75-10.26-7.02-17.39-7.02-16.42,0-29.05,11.66-29.05,29.92s12.64,29.92,29.05,29.92c7.78,0,13.93-2.49,18.15-7.56v6.7h16.09v-80.14h-16.85Zm-14.47,67.18c-8.42,0-14.91-6.05-14.91-16.09s6.48-16.09,14.91-16.09,14.8,6.05,14.8,16.09-6.48,16.09-14.8,16.09Z"/>
      </g>
    </g>
  </g>
</svg>