<?xml version="1.0" encoding="UTF-8"?>
<svg id="Layer_2" data-name="Layer 2" xmlns="http://www.w3.org/2000/svg" viewBox="0 0 388.5 388.5">
  <defs>
    <style>
      .cls-1 {
        fill: #b4d0ed;
      }
    </style>
  </defs>
  <g id="Layer_1-2" data-name="Layer 1">
    <path class="cls-1" d="m315.66,97.12c-.46,0-.83.15-1.21.15.83-3.95,1.21-8.04,1.21-12.29,0-33.54-27.16-60.7-60.7-60.7-18.67,0-35.13,8.57-46.29,21.85C194.55,18.82,166.4,0,133.55,0,86.58,0,48.56,38.02,48.56,84.98c0,5.54.61,10.85,1.59,16.09C21.09,110.63,0,137.72,0,169.97c0,40.22,32.63,72.84,72.84,72.84h242.81c40.22,0,72.84-32.63,72.84-72.84s-32.63-72.84-72.84-72.84Zm-248.88,186.81c-9.71,33.69-30.35,42.8-30.35,66.55,0,21.02,16.31,38.02,36.42,38.02s36.42-17,36.42-38.02c0-23.83-20.64-32.7-30.35-66.55-1.67-6.15-10.24-6.45-12.14,0Zm121.41,0c-9.71,33.69-30.35,42.8-30.35,66.55,0,21.02,16.31,38.02,36.42,38.02s36.42-17,36.42-38.02c0-23.83-20.64-32.7-30.35-66.55-1.67-6.15-10.24-6.45-12.14,0Zm121.41,0c-9.71,33.69-30.35,42.8-30.35,66.55,0,21.02,16.31,38.02,36.42,38.02s36.42-17,36.42-38.02c0-23.83-20.64-32.7-30.35-66.55-1.67-6.15-10.24-6.45-12.14,0Z"/>
  </g>
</svg>